<svg version="1.2" xmlns="http://www.w3.org/2000/svg" viewBox="0 0 1508 1589" width="1508" height="1589">
	<title>ttd-logo-svg</title>
	<style>
		.s0 { fill: #0099fa } 
	</style>
	<g id="Layer">
		<g id="Layer">
			<path id="Layer" class="s0" d="m875.7 0.4v243.6 649.7h-244.1v-645.9h-253.5v-247.4z"/>
			<g id="Layer">
				<path id="Layer" class="s0" d="m514.3 1285.4v264.4c-298.9-99.9-514.3-381.6-514.3-713.5 0-167.4 54.8-321.8 147.4-446.7h362.1v0.1c-158.1 86.3-265.4 253.9-265.4 446.6 0 194.5 109.5 363.5 270.2 449.1z"/>
				<path id="Layer" class="s0" d="m1507.4 836.3c0 415.5-337.5 752.3-753.7 752.3-41.5 0-82.1-3.4-121.8-9.8v-248.5c39 9.5 79.8 14.6 121.8 14.6 281.4 0 509.7-227.7 509.7-508.6 0-192.7-107.4-360.3-265.6-446.7v-265.1c296.4 101.2 509.6 381.5 509.6 711.8z"/>
			</g>
		</g>
	</g>
</svg>